# xmcd
#
# Track frame offsets:
# 150
# 14923
# 31535
# 43790
# 61327
# 77365
# 99060
# 112390
# 129082
# 140732
# 157075
# 176855
# 203954
# 217558
# 232408
# 250711
# 272250
#
# Disc length: 3804 seconds
#
# Revision: 1
# Processed by: cddbd v1.5.2PL0 Copyright (c) Steve Scherf et al.
# Submitted via: CedeCatalogueitor 2.6.0.6 http://personales.ya.com/cdcatalogueitor
#
DISCID=e70eda11
DTITLE=Varios Artistas - Houston Party 8
DYEAR=1900
DGENRE=
TTITLE0=Centro-Matic: Triggers And Trash Heaps
TTITLE1=Jody Wildgoose: New Orleans
TTITLE2=The Wedding Present: Ringway To Seatac
TTITLE3=Tunng: Woodcat
TTITLE4=Final Fantasy: He Poos Clouds
TTITLE5=Daniel Johnston: Everlasting Love
TTITLE6=Casiotone For The Painfully Alone: Nashville Parthenon
TTITLE7=Harltan T. Bobo: Too Much Love
TTITLE8=Erick Messler: Green Oceans
TTITLE9=Micah P. Hinson: The Creams You Left Behind
TTITLE10=Elliott Brood: Johnny Rooke
TTITLE11=Heller Mason: Minimalist And Anchored
TTITLE12=Ted Barnes: Bossa Nova Baby
TTITLE13=Humo: Liceu
TTITLE14=Skimo: Hombre Menguante
TTITLE15=Anorak: Running Out Of Memories
TTITLE16=Sesam-o: A Chance That No One Can Deny
EXTD=
EXTT0=
EXTT1=
EXTT2=
EXTT3=
EXTT4=
EXTT5=
EXTT6=
EXTT7=
EXTT8=
EXTT9=
EXTT10=
EXTT11=
EXTT12=
EXTT13=
EXTT14=
EXTT15=
EXTT16=
PLAYORDER=
